<svg width="26" height="34" viewBox="0 0 26 34" fill="none" xmlns="http://www.w3.org/2000/svg">
<path d="M16.1875 6.375V0L25.75 9.5625H19.375C18.5296 9.5625 17.7189 9.22668 17.1211 8.6289C16.5233 8.03113 16.1875 7.22038 16.1875 6.375Z" fill="black"/>
<path d="M4.5 0H16.1875V2.125H4.5C3.93641 2.125 3.39591 2.34888 2.9974 2.7474C2.59888 3.14591 2.375 3.68641 2.375 4.25V29.75C2.375 30.3136 2.59888 30.8541 2.9974 31.2526C3.39591 31.6511 3.93641 31.875 4.5 31.875H21.5C22.0636 31.875 22.6041 31.6511 23.0026 31.2526C23.4011 30.8541 23.625 30.3136 23.625 29.75V9.5625H25.75V29.75C25.75 30.8772 25.3022 31.9582 24.5052 32.7552C23.7082 33.5522 22.6272 34 21.5 34H4.5C3.37283 34 2.29183 33.5522 1.4948 32.7552C0.697766 31.9582 0.25 30.8772 0.25 29.75V4.25C0.25 3.12283 0.697766 2.04183 1.4948 1.2448C2.29183 0.447767 3.37283 0 4.5 0V0Z" fill="black"/>
<path fill-rule="evenodd" clip-rule="evenodd" d="M13 13.8125C13.2818 13.8125 13.552 13.9244 13.7513 14.1237C13.9506 14.323 14.0625 14.5932 14.0625 14.875V18.0625H17.25C17.5318 18.0625 17.802 18.1744 18.0013 18.3737C18.2006 18.573 18.3125 18.8432 18.3125 19.125C18.3125 19.4068 18.2006 19.677 18.0013 19.8763C17.802 20.0756 17.5318 20.1875 17.25 20.1875H14.0625V23.375C14.0625 23.6568 13.9506 23.927 13.7513 24.1263C13.552 24.3256 13.2818 24.4375 13 24.4375C12.7182 24.4375 12.448 24.3256 12.2487 24.1263C12.0494 23.927 11.9375 23.6568 11.9375 23.375V20.1875H8.75C8.46821 20.1875 8.19796 20.0756 7.9987 19.8763C7.79944 19.677 7.6875 19.4068 7.6875 19.125C7.6875 18.8432 7.79944 18.573 7.9987 18.3737C8.19796 18.1744 8.46821 18.0625 8.75 18.0625H11.9375V14.875C11.9375 14.5932 12.0494 14.323 12.2487 14.1237C12.448 13.9244 12.7182 13.8125 13 13.8125Z" fill="black"/>
</svg>
