<svg width="26" height="24" viewBox="0 0 26 24" fill="none" xmlns="http://www.w3.org/2000/svg">
<path fill-rule="evenodd" clip-rule="evenodd" d="M23.5625 2H2.4375C2.22201 2 2.01535 2.10536 1.86298 2.29289C1.7106 2.48043 1.625 2.73478 1.625 3V21C1.625 21.2652 1.7106 21.5196 1.86298 21.7071C2.01535 21.8946 2.22201 22 2.4375 22H23.5625C23.778 22 23.9847 21.8946 24.137 21.7071C24.2894 21.5196 24.375 21.2652 24.375 21V3C24.375 2.73478 24.2894 2.48043 24.137 2.29289C23.9847 2.10536 23.778 2 23.5625 2ZM2.4375 0C1.79103 0 1.17105 0.316071 0.713927 0.87868C0.256807 1.44129 0 2.20435 0 3V21C0 21.7956 0.256807 22.5587 0.713927 23.1213C1.17105 23.6839 1.79103 24 2.4375 24H23.5625C24.209 24 24.829 23.6839 25.2861 23.1213C25.7432 22.5587 26 21.7956 26 21V3C26 2.20435 25.7432 1.44129 25.2861 0.87868C24.829 0.316071 24.209 0 23.5625 0H2.4375Z" fill="black"/>
<path fill-rule="evenodd" clip-rule="evenodd" d="M4.875 7C4.875 6.73478 4.9606 6.48043 5.11298 6.29289C5.26535 6.10536 5.47201 6 5.6875 6H20.3125C20.528 6 20.7347 6.10536 20.887 6.29289C21.0394 6.48043 21.125 6.73478 21.125 7C21.125 7.26522 21.0394 7.51957 20.887 7.70711C20.7347 7.89464 20.528 8 20.3125 8H5.6875C5.47201 8 5.26535 7.89464 5.11298 7.70711C4.9606 7.51957 4.875 7.26522 4.875 7ZM4.875 12C4.875 11.7348 4.9606 11.4804 5.11298 11.2929C5.26535 11.1054 5.47201 11 5.6875 11H20.3125C20.528 11 20.7347 11.1054 20.887 11.2929C21.0394 11.4804 21.125 11.7348 21.125 12C21.125 12.2652 21.0394 12.5196 20.887 12.7071C20.7347 12.8946 20.528 13 20.3125 13H5.6875C5.47201 13 5.26535 12.8946 5.11298 12.7071C4.9606 12.5196 4.875 12.2652 4.875 12ZM4.875 17C4.875 16.7348 4.9606 16.4804 5.11298 16.2929C5.26535 16.1054 5.47201 16 5.6875 16H15.4375C15.653 16 15.8597 16.1054 16.012 16.2929C16.1644 16.4804 16.25 16.7348 16.25 17C16.25 17.2652 16.1644 17.5196 16.012 17.7071C15.8597 17.8946 15.653 18 15.4375 18H5.6875C5.47201 18 5.26535 17.8946 5.11298 17.7071C4.9606 17.5196 4.875 17.2652 4.875 17Z" fill="black"/>
</svg>
