<svg width="29" height="23" viewBox="0 0 29 23" fill="none" xmlns="http://www.w3.org/2000/svg">
<path d="M24.0604 1.8708C22.2052 1.05827 20.2525 0.489319 18.2512 0.17814C18.2331 0.175411 18.2146 0.178365 18.1982 0.186595C18.1818 0.194825 18.1684 0.207927 18.1597 0.2241C17.9173 0.671966 17.6507 1.25689 17.4653 1.71441C15.3088 1.42555 13.1211 1.46374 10.976 1.82768C10.7515 1.32554 10.4988 0.836437 10.2193 0.362701C10.2099 0.347017 10.196 0.33454 10.1794 0.326912C10.1628 0.319283 10.1443 0.31686 10.1263 0.319961C8.13656 0.698952 6.20456 1.33602 4.3797 2.21433C4.36406 2.22061 4.35109 2.23213 4.343 2.24691C0.759689 7.80875 -0.156108 13.1892 0.431269 18.4759C0.433476 18.5007 0.449876 18.5253 0.469668 18.5409C2.63987 20.0905 5.05746 21.2604 7.61934 22.0007C7.63743 22.006 7.65676 22.0055 7.67452 21.9991C7.69228 21.9927 7.70754 21.9809 7.7181 21.9652C8.25148 21.2106 8.72384 20.4162 9.12807 19.5823C9.1365 19.5651 9.13915 19.5456 9.13562 19.5268C9.1321 19.508 9.12259 19.4909 9.10851 19.4779C9.09919 19.4694 9.08819 19.4629 9.07623 19.4589C8.3068 19.1785 7.56041 18.8386 6.84386 18.4421C6.82385 18.4312 6.80879 18.413 6.80181 18.3913C6.79482 18.3696 6.79644 18.3461 6.80634 18.3256C6.81214 18.3123 6.82107 18.3006 6.83236 18.2914C6.97942 18.1771 7.1264 18.0574 7.26627 17.9378C7.27863 17.9275 7.29356 17.9208 7.30946 17.9183C7.32536 17.9158 7.34163 17.9177 7.35653 17.9238C12.0397 19.9644 17.0689 19.8766 21.6212 17.6748C21.6365 17.6679 21.6533 17.6653 21.6699 17.6672C21.6865 17.6691 21.7022 17.6754 21.7155 17.6856C21.8594 17.8002 22.0105 17.9147 22.1615 18.0239C22.1737 18.0325 22.1836 18.044 22.1903 18.0574C22.197 18.0707 22.2003 18.0856 22.1998 18.1005C22.1994 18.1155 22.1952 18.1301 22.1878 18.143C22.1803 18.156 22.1697 18.1669 22.157 18.1748C21.4564 18.5997 20.7214 18.9652 19.9597 19.2672C19.9475 19.2718 19.9365 19.2791 19.9275 19.2885C19.9185 19.2978 19.9116 19.309 19.9074 19.3213C19.9035 19.3333 19.9021 19.3459 19.9032 19.3583C19.9043 19.3708 19.908 19.383 19.914 19.394C20.3541 20.2115 20.8557 20.9906 21.4045 21.7263C21.4156 21.7416 21.4313 21.7529 21.4492 21.7587C21.4672 21.7644 21.4865 21.7643 21.5044 21.7583C24.0432 20.9315 26.4224 19.6777 28.5396 18.0509C28.5503 18.0433 28.559 18.0334 28.5653 18.0219C28.5715 18.0104 28.5751 17.9977 28.5757 17.9846C29.0614 11.8522 27.3844 6.56144 24.0965 1.90389C24.0931 1.89616 24.0882 1.88922 24.082 1.88352C24.0758 1.87782 24.0684 1.87349 24.0604 1.8708ZM9.74346 15.0873C8.34377 15.1117 7.17003 13.8474 7.14253 12.2721C7.115 10.695 8.22262 9.39091 9.64359 9.36611C11.0752 9.34112 12.2385 10.6162 12.2445 12.183C12.272 13.7584 11.1644 15.0625 9.74346 15.0873ZM19.174 14.9226C17.7761 14.947 16.6006 13.6828 16.5731 12.1075C16.5456 10.5304 17.6532 9.2263 19.0742 9.2015C20.5058 9.17651 21.6708 10.4516 21.6751 12.0184C21.7026 13.5937 20.6056 14.8977 19.174 14.9226Z" fill="white"/>
</svg>
