<svg width="28" height="30" viewBox="0 0 28 30" fill="none" xmlns="http://www.w3.org/2000/svg">
<path d="M14.4633 0.653981C14.3979 0.463162 14.2745 0.297547 14.1104 0.180291C13.9463 0.0630346 13.7496 0 13.5479 0C13.3462 0 13.1495 0.0630346 12.9854 0.180291C12.8212 0.297547 12.6979 0.463162 12.6325 0.653981L11.5235 3.87244H15.5722L14.4633 0.653981ZM21.5795 21.2904H19.5319L22.3091 29.3472C22.3928 29.59 22.5695 29.7896 22.8003 29.9021C23.0311 30.0146 23.2972 30.0308 23.54 29.9472C23.7828 29.8635 23.9824 29.6868 24.0949 29.456C24.2074 29.2252 24.2236 28.9591 24.1399 28.7163L21.5795 21.2904ZM14.5155 21.2904H12.5802V26.1288C12.5802 26.3854 12.6822 26.6315 12.8636 26.813C13.0451 26.9945 13.2912 27.0964 13.5479 27.0964C13.8045 27.0964 14.0506 26.9945 14.2321 26.813C14.4136 26.6315 14.5155 26.3854 14.5155 26.1288V21.2904ZM7.56383 21.2904H5.51625L2.95581 28.7163C2.87214 28.9591 2.88835 29.2252 3.00086 29.456C3.11337 29.6868 3.31298 29.8635 3.55576 29.9472C3.79854 30.0308 4.06461 30.0146 4.29545 29.9021C4.52628 29.7896 4.70296 29.59 4.78663 29.3472L7.56383 21.2904Z" fill="black"/>
<path fill-rule="evenodd" clip-rule="evenodd" d="M25.1593 5.80788H1.93533V19.3552H25.1593V5.80788ZM1.93533 3.87255C1.42205 3.87255 0.929791 4.07645 0.566846 4.43939C0.2039 4.80234 0 5.2946 0 5.80788V19.3552C0 19.8685 0.2039 20.3607 0.566846 20.7237C0.929791 21.0866 1.42205 21.2905 1.93533 21.2905H25.1593C25.6726 21.2905 26.1649 21.0866 26.5278 20.7237C26.8907 20.3607 27.0946 19.8685 27.0946 19.3552V5.80788C27.0946 5.2946 26.8907 4.80234 26.5278 4.43939C26.1649 4.07645 25.6726 3.87255 25.1593 3.87255H1.93533Z" fill="black"/>
</svg>
