<svg width="24" height="24" viewBox="0 0 24 24" fill="none" xmlns="http://www.w3.org/2000/svg">
<path d="M23.761 2.36003C23.914 2.5136 24 2.72158 24 2.93841C24 3.15524 23.914 3.36323 23.761 3.51679L22.052 5.22735L18.7751 1.95042L20.484 0.23986C20.6377 0.0862779 20.846 0 21.0632 0C21.2805 0 21.4888 0.0862779 21.6424 0.23986L23.761 2.3584V2.36003ZM20.8936 6.3841L17.6167 3.10717L6.45385 14.2717C6.36367 14.3618 6.29578 14.4718 6.25559 14.5928L4.93663 18.5481C4.91271 18.6202 4.90931 18.6975 4.92682 18.7714C4.94433 18.8454 4.98205 18.913 5.03577 18.9667C5.08949 19.0204 5.15709 19.0581 5.23102 19.0756C5.30494 19.0931 5.38228 19.0897 5.45438 19.0658L9.40964 17.7469C9.5305 17.7071 9.64045 17.6398 9.73078 17.5502L20.8936 6.38574V6.3841Z" fill="black"/>
<path fill-rule="evenodd" clip-rule="evenodd" d="M0 21.3006C0 21.9525 0.258935 22.5776 0.719843 23.0385C1.18075 23.4994 1.80588 23.7583 2.4577 23.7583H20.4808C21.1326 23.7583 21.7578 23.4994 22.2187 23.0385C22.6796 22.5776 22.9385 21.9525 22.9385 21.3006V11.4699C22.9385 11.2526 22.8522 11.0442 22.6986 10.8906C22.5449 10.7369 22.3366 10.6506 22.1193 10.6506C21.902 10.6506 21.6936 10.7369 21.54 10.8906C21.3864 11.0442 21.3 11.2526 21.3 11.4699V21.3006C21.3 21.5179 21.2137 21.7263 21.0601 21.8799C20.9065 22.0336 20.6981 22.1199 20.4808 22.1199H2.4577C2.24042 22.1199 2.03205 22.0336 1.87841 21.8799C1.72478 21.7263 1.63847 21.5179 1.63847 21.3006V3.27753C1.63847 3.06026 1.72478 2.85188 1.87841 2.69825C2.03205 2.54461 2.24042 2.4583 2.4577 2.4583H13.1077C13.325 2.4583 13.5334 2.37199 13.687 2.21835C13.8406 2.06471 13.927 1.85634 13.927 1.63907C13.927 1.42179 13.8406 1.21342 13.687 1.05978C13.5334 0.906144 13.325 0.819833 13.1077 0.819833H2.4577C1.80588 0.819833 1.18075 1.07877 0.719843 1.53968C0.258935 2.00058 0 2.62571 0 3.27753V21.3006Z" fill="black"/>
</svg>
