<svg width="28" height="33" viewBox="0 0 28 33" fill="none" xmlns="http://www.w3.org/2000/svg">
<path fill-rule="evenodd" clip-rule="evenodd" d="M27.3236 0.309438C27.4657 0.400993 27.5823 0.524836 27.6629 0.670034C27.7436 0.815232 27.7859 0.977319 27.7861 1.14199V16.188C27.786 16.3884 27.7237 16.5841 27.6071 16.75C27.4905 16.9159 27.325 17.0444 27.1319 17.1189L26.7444 16.188L27.1319 17.1189L27.1257 17.1209L27.1132 17.1269L27.0653 17.145C26.7914 17.2498 26.5156 17.3501 26.2382 17.4459C25.6882 17.6365 24.9236 17.8933 24.057 18.148C22.357 18.6536 20.1425 19.1973 18.4112 19.1973C16.6467 19.1973 15.1863 18.6355 13.9155 18.144L13.8571 18.124C12.5363 17.6124 11.4114 17.1911 10.078 17.1911C8.61973 17.1911 6.66559 17.6525 5.00104 18.148C4.25574 18.3717 3.51726 18.6159 2.78649 18.8803V31.2341C2.78649 31.5001 2.67674 31.7553 2.48139 31.9434C2.28605 32.1315 2.0211 32.2372 1.74484 32.2372C1.46857 32.2372 1.20363 32.1315 1.00828 31.9434C0.812931 31.7553 0.703186 31.5001 0.703186 31.2341V1.14199C0.703186 0.875956 0.812931 0.620821 1.00828 0.432709C1.20363 0.244596 1.46857 0.138916 1.74484 0.138916C2.0211 0.138916 2.28605 0.244596 2.48139 0.432709C2.67674 0.620821 2.78649 0.875956 2.78649 1.14199V1.70772C3.25731 1.54923 3.8198 1.36667 4.43229 1.18612C6.13227 0.684586 8.3489 0.138916 10.078 0.138916C11.828 0.138916 13.253 0.694617 14.4967 1.1801L14.5863 1.21621C15.8821 1.71976 17.0113 2.14506 18.4112 2.14506C19.8696 2.14506 21.8237 1.68364 23.4882 1.18813C24.4368 0.902879 25.3742 0.584359 26.2986 0.233205L26.3382 0.219162L26.3465 0.215149H26.3486L27.3236 0.309438ZM25.7028 2.58841C25.2445 2.74489 24.7028 2.92344 24.107 3.09998C22.4195 3.60553 20.207 4.14919 18.4112 4.14919C16.5654 4.14919 15.0946 3.57544 13.8217 3.07791L13.8051 3.07189C12.4988 2.56635 11.4093 2.14506 10.078 2.14506C8.68431 2.14506 6.73226 2.60446 5.04687 3.10399C4.28669 3.32985 3.53296 3.57536 2.78649 3.84025V16.7458C3.24481 16.5893 3.78647 16.4107 4.38229 16.2342C6.06977 15.7266 8.28223 15.185 10.078 15.185C11.8426 15.185 13.303 15.7467 14.5738 16.2382L14.6321 16.2583C15.9529 16.7698 17.0779 17.1911 18.4112 17.1911C19.8029 17.1911 21.757 16.7317 23.4424 16.2322C24.2026 16.0063 24.9563 15.7608 25.7028 15.4959V2.59042V2.58841Z" fill="black"/>
</svg>
