<svg width="33" height="25" viewBox="0 0 33 25" fill="none" xmlns="http://www.w3.org/2000/svg">
<path d="M27.5134 2.06148C25.4384 1.10921 23.2489 0.429562 20.9994 0.0394752C20.9791 0.0360429 20.9581 0.0390072 20.9395 0.0479607C20.9209 0.0569142 20.9055 0.0714171 20.8954 0.0894751C20.6134 0.589475 20.3014 1.24347 20.0834 1.75548C17.6586 1.38749 15.1922 1.38749 12.7674 1.75548C12.5243 1.18511 12.2492 0.628901 11.9434 0.0894751C11.9332 0.0716149 11.9177 0.0572791 11.8992 0.0483544C11.8806 0.0394296 11.8598 0.0363342 11.8394 0.0394752C9.58943 0.427475 7.39943 1.10748 5.32543 2.06148C5.30769 2.06825 5.29284 2.08097 5.28343 2.09748C1.13543 8.29548 -0.00256652 14.3415 0.555433 20.3115C0.557434 20.3395 0.575433 20.3675 0.597433 20.3855C3.01288 22.1747 5.71462 23.5408 8.58743 24.4255C8.60772 24.4319 8.62951 24.4316 8.64965 24.4248C8.6698 24.418 8.68723 24.4049 8.69943 24.3875C9.31543 23.5475 9.86343 22.6615 10.3354 21.7295C10.3453 21.7103 10.3486 21.6884 10.345 21.6672C10.3414 21.6459 10.331 21.6264 10.3154 21.6115C10.3051 21.6017 10.2928 21.5942 10.2794 21.5895C9.41776 21.2583 8.58322 20.8604 7.78343 20.3995C7.76109 20.3868 7.74448 20.366 7.73703 20.3415C7.72959 20.3169 7.73188 20.2904 7.74343 20.2675C7.75024 20.2526 7.76053 20.2395 7.77343 20.2295C7.94143 20.1035 8.10943 19.9715 8.26943 19.8395C8.28357 19.8281 8.30053 19.8208 8.31849 19.8183C8.33646 19.8159 8.35476 19.8183 8.37143 19.8255C13.6094 22.2175 19.2794 22.2175 24.4534 19.8255C24.4707 19.818 24.4897 19.8153 24.5084 19.8178C24.527 19.8203 24.5447 19.8278 24.5594 19.8395C24.7194 19.9715 24.8874 20.1035 25.0554 20.2295C25.069 20.2394 25.08 20.2526 25.0873 20.2678C25.0945 20.283 25.0979 20.2998 25.0971 20.3166C25.0963 20.3335 25.0914 20.3499 25.0827 20.3643C25.074 20.3788 25.0619 20.3909 25.0474 20.3995C24.2495 20.8647 23.4139 21.2621 22.5494 21.5875C22.5356 21.5925 22.5231 21.6004 22.5128 21.6108C22.5024 21.6212 22.4944 21.6337 22.4894 21.6475C22.4848 21.6608 22.483 21.675 22.484 21.6891C22.485 21.7032 22.4889 21.7169 22.4954 21.7295C22.9754 22.6595 23.5254 23.5475 24.1294 24.3875C24.1416 24.4049 24.1591 24.418 24.1792 24.4248C24.1994 24.4316 24.2212 24.4319 24.2414 24.4255C27.1191 23.5435 29.8252 22.1773 32.2434 20.3855C32.2555 20.3771 32.2656 20.3661 32.2729 20.3533C32.2802 20.3405 32.2844 20.3262 32.2854 20.3115C32.9534 13.4095 31.1674 7.41348 27.5534 2.09948C27.5498 2.0907 27.5443 2.08278 27.5375 2.07624C27.5306 2.06969 27.5224 2.06466 27.5134 2.06148ZM11.1174 16.6755C9.53943 16.6755 8.24143 15.2275 8.24143 13.4515C8.24143 11.6735 9.51543 10.2255 11.1174 10.2255C12.7314 10.2255 14.0174 11.6855 13.9934 13.4515C13.9934 15.2275 12.7194 16.6755 11.1174 16.6755ZM21.7494 16.6755C20.1734 16.6755 18.8734 15.2275 18.8734 13.4515C18.8734 11.6735 20.1474 10.2255 21.7494 10.2255C23.3634 10.2255 24.6514 11.6855 24.6254 13.4515C24.6254 15.2275 23.3634 16.6755 21.7494 16.6755Z" fill="black"/>
</svg>
