<svg width="23" height="23" viewBox="0 0 23 23" fill="none" xmlns="http://www.w3.org/2000/svg">
<path d="M22.2526 2.90986C22.3927 3.05044 22.4714 3.24085 22.4714 3.43936C22.4714 3.63786 22.3927 3.82827 22.2526 3.96886L20.6881 5.53486L17.6881 2.53486L19.2526 0.968857C19.3932 0.828254 19.584 0.749268 19.7828 0.749268C19.9817 0.749268 20.1724 0.828254 20.3131 0.968857L22.2526 2.90836V2.90986ZM19.6276 6.59386L16.6276 3.59386L6.40809 13.8149C6.32553 13.8974 6.26339 13.9981 6.22659 14.1089L5.01909 17.7299C4.99719 17.7959 4.99408 17.8667 5.01011 17.9344C5.02614 18.002 5.06067 18.0639 5.10985 18.1131C5.15903 18.1623 5.22092 18.1968 5.2886 18.2128C5.35628 18.2289 5.42708 18.2258 5.49309 18.2039L9.11409 16.9964C9.22474 16.96 9.3254 16.8984 9.40809 16.8164L19.6276 6.59536V6.59386Z" fill="black"/>
<path fill-rule="evenodd" clip-rule="evenodd" d="M0.5 20.25C0.5 20.8467 0.737053 21.419 1.15901 21.841C1.58097 22.2629 2.15326 22.5 2.75 22.5H19.25C19.8467 22.5 20.419 22.2629 20.841 21.841C21.2629 21.419 21.5 20.8467 21.5 20.25V11.25C21.5 11.0511 21.421 10.8603 21.2803 10.7197C21.1397 10.579 20.9489 10.5 20.75 10.5C20.5511 10.5 20.3603 10.579 20.2197 10.7197C20.079 10.8603 20 11.0511 20 11.25V20.25C20 20.4489 19.921 20.6397 19.7803 20.7803C19.6397 20.921 19.4489 21 19.25 21H2.75C2.55109 21 2.36032 20.921 2.21967 20.7803C2.07902 20.6397 2 20.4489 2 20.25V3.74999C2 3.55108 2.07902 3.36032 2.21967 3.21966C2.36032 3.07901 2.55109 2.99999 2.75 2.99999H12.5C12.6989 2.99999 12.8897 2.92098 13.0303 2.78032C13.171 2.63967 13.25 2.44891 13.25 2.24999C13.25 2.05108 13.171 1.86032 13.0303 1.71966C12.8897 1.57901 12.6989 1.49999 12.5 1.49999H2.75C2.15326 1.49999 1.58097 1.73705 1.15901 2.159C0.737053 2.58096 0.5 3.15326 0.5 3.74999V20.25Z" fill="black"/>
</svg>
