<svg width="24" height="24" viewBox="0 0 24 24" fill="none" xmlns="http://www.w3.org/2000/svg">
<g clip-path="url(#clip0_446_992)">
<path fill-rule="evenodd" clip-rule="evenodd" d="M0.151195 3.33457C-0.0516924 4.09791 -0.0503679 4.90118 0.155035 5.66384C0.360439 6.42651 0.762704 7.12179 1.32151 7.67999C1.88032 8.23819 2.57603 8.6397 3.33892 8.84427C4.10181 9.04884 4.90508 9.04929 5.66819 8.84557L15.1797 18.2236C14.982 18.8951 14.9436 19.6035 15.0674 20.2924C15.1913 20.9814 15.474 21.6321 15.8931 22.1927C16.3123 22.7534 16.8563 23.2086 17.4821 23.5224C18.1079 23.8361 18.7982 23.9997 19.4982 24.0001C20.1431 23.9992 20.7803 23.8597 21.3666 23.591C21.9529 23.3223 22.4745 22.9308 22.8963 22.4429C23.318 21.955 23.63 21.3822 23.811 20.7632C23.992 20.1442 24.0379 19.4936 23.9455 18.8553C23.8531 18.217 23.6246 17.6061 23.2754 17.0639C22.9263 16.5217 22.4647 16.0608 21.9219 15.7126C21.3791 15.3643 20.7678 15.1368 20.1294 15.0455C19.491 14.9541 18.8404 15.001 18.2217 15.1831L8.84369 5.67157C9.0484 4.90816 9.0487 4.10433 8.84457 3.34077C8.64044 2.5772 8.23905 1.88076 7.6807 1.32135C7.12235 0.76193 6.42667 0.35922 5.6635 0.153635C4.90032 -0.0519504 4.0965 -0.0531783 3.33269 0.150074L6.54419 3.36307L5.99819 6.00007L3.36269 6.54607L0.151195 3.33457ZM20.2062 16.8631L19.4982 16.5001L18.7917 16.8631L17.9982 16.9021L17.5677 17.5696L16.9002 18.0001L16.8612 18.7936L16.4982 19.5001L16.8612 20.2066L16.9002 21.0001L17.5677 21.4306L17.9982 22.0981L18.7917 22.1371L19.4982 22.5001L20.2047 22.1371L20.9982 22.0981L21.4287 21.4306L22.0962 21.0001L22.1352 20.2066L22.4982 19.5001L22.1352 18.7936L22.0962 18.0001L21.4287 17.5696L20.9982 16.9021L20.2047 16.8631H20.2062Z" fill="black"/>
</g>
<defs>
<clipPath id="clip0_446_992">
<rect width="24" height="24" fill="white"/>
</clipPath>
</defs>
</svg>
