<svg width="22" height="22" viewBox="0 0 22 22" fill="none" xmlns="http://www.w3.org/2000/svg">
<path fill-rule="evenodd" clip-rule="evenodd" d="M19.25 1.375H2.75C2.38533 1.375 2.03559 1.51987 1.77773 1.77773C1.51987 2.03559 1.375 2.38533 1.375 2.75V19.25C1.375 19.6147 1.51987 19.9644 1.77773 20.2223C2.03559 20.4801 2.38533 20.625 2.75 20.625H19.25C19.6147 20.625 19.9644 20.4801 20.2223 20.2223C20.4801 19.9644 20.625 19.6147 20.625 19.25V2.75C20.625 2.38533 20.4801 2.03559 20.2223 1.77773C19.9644 1.51987 19.6147 1.375 19.25 1.375ZM2.75 0C2.02065 0 1.32118 0.289731 0.805456 0.805456C0.289731 1.32118 0 2.02065 0 2.75V19.25C0 19.9793 0.289731 20.6788 0.805456 21.1945C1.32118 21.7103 2.02065 22 2.75 22H19.25C19.9793 22 20.6788 21.7103 21.1945 21.1945C21.7103 20.6788 22 19.9793 22 19.25V2.75C22 2.02065 21.7103 1.32118 21.1945 0.805456C20.6788 0.289731 19.9793 0 19.25 0H2.75Z" fill="black"/>
<path fill-rule="evenodd" clip-rule="evenodd" d="M15.0833 6.8338C15.2757 6.64305 15.5355 6.53569 15.8065 6.53494C16.0774 6.5342 16.3378 6.64012 16.5313 6.8298C16.7247 7.01949 16.8358 7.2777 16.8404 7.54862C16.845 7.81953 16.7428 8.08138 16.5559 8.27755L11.0669 15.1388C10.9726 15.2404 10.8587 15.322 10.7322 15.3786C10.6056 15.4352 10.4689 15.4656 10.3303 15.4682C10.1917 15.4708 10.0539 15.4454 9.92536 15.3935C9.79677 15.3416 9.67997 15.2643 9.58194 15.1663L5.94506 11.528C5.84375 11.4336 5.76248 11.3198 5.70612 11.1933C5.64975 11.0668 5.61944 10.9302 5.617 10.7918C5.61456 10.6533 5.64003 10.5158 5.6919 10.3874C5.74376 10.2589 5.82096 10.1423 5.91889 10.0444C6.01681 9.94644 6.13346 9.86925 6.26187 9.81738C6.39028 9.76551 6.52782 9.74004 6.66628 9.74248C6.80475 9.74493 6.94131 9.77524 7.0678 9.8316C7.1943 9.88796 7.30815 9.96923 7.40256 10.0705L10.2818 12.9484L15.0572 6.86405C15.0657 6.8534 15.0749 6.84329 15.0847 6.8338H15.0833Z" fill="black"/>
</svg>
