<svg width="30" height="32" viewBox="0 0 30 32" fill="none" xmlns="http://www.w3.org/2000/svg">
<path d="M6 4H22C23.0609 4 24.0783 4.42143 24.8284 5.17157C25.5786 5.92172 26 6.93913 26 8V28C26 29.0609 25.5786 30.0783 24.8284 30.8284C24.0783 31.5786 23.0609 32 22 32H6C4.93913 32 3.92172 31.5786 3.17157 30.8284C2.42143 30.0783 2 29.0609 2 28H4C4 28.5304 4.21071 29.0391 4.58579 29.4142C4.96086 29.7893 5.46957 30 6 30H22C22.5304 30 23.0391 29.7893 23.4142 29.4142C23.7893 29.0391 24 28.5304 24 28V8C24 7.46957 23.7893 6.96086 23.4142 6.58579C23.0391 6.21071 22.5304 6 22 6H6C5.46957 6 4.96086 6.21071 4.58579 6.58579C4.21071 6.96086 4 7.46957 4 8H2C2 6.93913 2.42143 5.92172 3.17157 5.17157C3.92172 4.42143 4.93913 4 6 4Z" fill="black"/>
<path d="M10 0H26C27.0609 0 28.0783 0.421427 28.8284 1.17157C29.5786 1.92172 30 2.93913 30 4V24C30 25.0609 29.5786 26.0783 28.8284 26.8284C28.0783 27.5786 27.0609 28 26 28V26C26.5304 26 27.0391 25.7893 27.4142 25.4142C27.7893 25.0391 28 24.5304 28 24V4C28 3.46957 27.7893 2.96086 27.4142 2.58579C27.0391 2.21071 26.5304 2 26 2H10C9.46957 2 8.96086 2.21071 8.58579 2.58579C8.21071 2.96086 8 3.46957 8 4H6C6 2.93913 6.42143 1.92172 7.17157 1.17157C7.92172 0.421427 8.93913 0 10 0ZM2 12V11C2 10.7348 2.10536 10.4804 2.29289 10.2929C2.48043 10.1054 2.73478 10 3 10C3.26522 10 3.51957 10.1054 3.70711 10.2929C3.89464 10.4804 4 10.7348 4 11V12H5C5.26522 12 5.51957 12.1054 5.70711 12.2929C5.89464 12.4804 6 12.7348 6 13C6 13.2652 5.89464 13.5196 5.70711 13.7071C5.51957 13.8946 5.26522 14 5 14H1C0.734784 14 0.48043 13.8946 0.292893 13.7071C0.105357 13.5196 0 13.2652 0 13C0 12.7348 0.105357 12.4804 0.292893 12.2929C0.48043 12.1054 0.734784 12 1 12H2ZM2 18V17C2 16.7348 2.10536 16.4804 2.29289 16.2929C2.48043 16.1054 2.73478 16 3 16C3.26522 16 3.51957 16.1054 3.70711 16.2929C3.89464 16.4804 4 16.7348 4 17V18H5C5.26522 18 5.51957 18.1054 5.70711 18.2929C5.89464 18.4804 6 18.7348 6 19C6 19.2652 5.89464 19.5196 5.70711 19.7071C5.51957 19.8946 5.26522 20 5 20H1C0.734784 20 0.48043 19.8946 0.292893 19.7071C0.105357 19.5196 0 19.2652 0 19C0 18.7348 0.105357 18.4804 0.292893 18.2929C0.48043 18.1054 0.734784 18 1 18H2ZM2 24V23C2 22.7348 2.10536 22.4804 2.29289 22.2929C2.48043 22.1054 2.73478 22 3 22C3.26522 22 3.51957 22.1054 3.70711 22.2929C3.89464 22.4804 4 22.7348 4 23V24H5C5.26522 24 5.51957 24.1054 5.70711 24.2929C5.89464 24.4804 6 24.7348 6 25C6 25.2652 5.89464 25.5196 5.70711 25.7071C5.51957 25.8946 5.26522 26 5 26H1C0.734784 26 0.48043 25.8946 0.292893 25.7071C0.105357 25.5196 0 25.2652 0 25C0 24.7348 0.105357 24.4804 0.292893 24.2929C0.48043 24.1054 0.734784 24 1 24H2Z" fill="black"/>
</svg>
