<svg width="24" height="20" viewBox="0 0 24 20" fill="none" xmlns="http://www.w3.org/2000/svg">
<path d="M1.5 2.89819C2.8275 2.34319 4.731 1.74469 6.582 1.55869C8.577 1.35769 10.269 1.65319 11.25 2.68669V17.3057C9.8475 16.5107 8.07 16.4012 6.4305 16.5662C4.6605 16.7462 2.8755 17.2577 1.5 17.7827V2.89819ZM12.75 2.68669C13.731 1.65319 15.423 1.35769 17.418 1.55869C19.269 1.74469 21.1725 2.34319 22.5 2.89819V17.7827C21.123 17.2577 19.3395 16.7447 17.5695 16.5677C15.9285 16.4012 14.1525 16.5092 12.75 17.3057V2.68669ZM12 1.33069C10.5225 0.0601932 8.3805 -0.128807 6.4305 0.0661933C4.1595 0.295693 1.8675 1.07419 0.4395 1.72369C0.308474 1.78328 0.197363 1.87932 0.119432 2.00034C0.0415 2.12136 3.98571e-05 2.26225 0 2.40619L0 18.9062C3.4743e-05 19.0317 0.0315557 19.1552 0.0916756 19.2653C0.151796 19.3755 0.238593 19.4688 0.344116 19.5367C0.44964 19.6046 0.570517 19.6449 0.695675 19.654C0.820833 19.6631 0.946271 19.6406 1.0605 19.5887C2.3835 18.9887 4.515 18.2672 6.5805 18.0587C8.694 17.8457 10.4655 18.1892 11.415 19.3742C11.4853 19.4618 11.5743 19.5325 11.6756 19.5811C11.7768 19.6296 11.8877 19.6549 12 19.6549C12.1123 19.6549 12.2232 19.6296 12.3244 19.5811C12.4257 19.5325 12.5147 19.4618 12.585 19.3742C13.5345 18.1892 15.306 17.8457 17.418 18.0587C19.485 18.2672 21.618 18.9887 22.9395 19.5887C23.0537 19.6406 23.1792 19.6631 23.3043 19.654C23.4295 19.6449 23.5504 19.6046 23.6559 19.5367C23.7614 19.4688 23.8482 19.3755 23.9083 19.2653C23.9684 19.1552 24 19.0317 24 18.9062V2.40619C24 2.26225 23.9585 2.12136 23.8806 2.00034C23.8026 1.87932 23.6915 1.78328 23.5605 1.72369C22.1325 1.07419 19.8405 0.295693 17.5695 0.0661933C15.6195 -0.130307 13.4775 0.0601932 12 1.33069Z" fill="black"/>
</svg>
