<svg width="20" height="23" viewBox="0 0 20 23" fill="none" xmlns="http://www.w3.org/2000/svg">
<path d="M6.25 8.25C6.44891 8.25 6.63968 8.32902 6.78033 8.46967C6.92098 8.61032 7 8.80109 7 9V18C7 18.1989 6.92098 18.3897 6.78033 18.5303C6.63968 18.671 6.44891 18.75 6.25 18.75C6.05109 18.75 5.86032 18.671 5.71967 18.5303C5.57902 18.3897 5.5 18.1989 5.5 18V9C5.5 8.80109 5.57902 8.61032 5.71967 8.46967C5.86032 8.32902 6.05109 8.25 6.25 8.25ZM10 8.25C10.1989 8.25 10.3897 8.32902 10.5303 8.46967C10.671 8.61032 10.75 8.80109 10.75 9V18C10.75 18.1989 10.671 18.3897 10.5303 18.5303C10.3897 18.671 10.1989 18.75 10 18.75C9.80109 18.75 9.61032 18.671 9.46967 18.5303C9.32902 18.3897 9.25 18.1989 9.25 18V9C9.25 8.80109 9.32902 8.61032 9.46967 8.46967C9.61032 8.32902 9.80109 8.25 10 8.25ZM14.5 9C14.5 8.80109 14.421 8.61032 14.2803 8.46967C14.1397 8.32902 13.9489 8.25 13.75 8.25C13.5511 8.25 13.3603 8.32902 13.2197 8.46967C13.079 8.61032 13 8.80109 13 9V18C13 18.1989 13.079 18.3897 13.2197 18.5303C13.3603 18.671 13.5511 18.75 13.75 18.75C13.9489 18.75 14.1397 18.671 14.2803 18.5303C14.421 18.3897 14.5 18.1989 14.5 18V9Z" fill="black"/>
<path fill-rule="evenodd" clip-rule="evenodd" d="M19.75 4.5C19.75 4.89782 19.592 5.27936 19.3107 5.56066C19.0294 5.84196 18.6478 6 18.25 6H17.5V19.5C17.5 20.2957 17.1839 21.0587 16.6213 21.6213C16.0587 22.1839 15.2956 22.5 14.5 22.5H5.5C4.70435 22.5 3.94129 22.1839 3.37868 21.6213C2.81607 21.0587 2.5 20.2957 2.5 19.5V6H1.75C1.35218 6 0.970644 5.84196 0.68934 5.56066C0.408035 5.27936 0.25 4.89782 0.25 4.5V3C0.25 2.60218 0.408035 2.22064 0.68934 1.93934C0.970644 1.65804 1.35218 1.5 1.75 1.5H7C7 1.10218 7.15804 0.720644 7.43934 0.43934C7.72064 0.158035 8.10218 0 8.5 0H11.5C11.8978 0 12.2794 0.158035 12.5607 0.43934C12.842 0.720644 13 1.10218 13 1.5H18.25C18.6478 1.5 19.0294 1.65804 19.3107 1.93934C19.592 2.22064 19.75 2.60218 19.75 3V4.5ZM4.177 6L4 6.0885V19.5C4 19.8978 4.15804 20.2794 4.43934 20.5607C4.72064 20.842 5.10218 21 5.5 21H14.5C14.8978 21 15.2794 20.842 15.5607 20.5607C15.842 20.2794 16 19.8978 16 19.5V6.0885L15.823 6H4.177ZM1.75 4.5V3H18.25V4.5H1.75Z" fill="black"/>
</svg>
