<svg width="24" height="25" viewBox="0 0 24 25" fill="none" xmlns="http://www.w3.org/2000/svg">
<path fill-rule="evenodd" clip-rule="evenodd" d="M10.2362 4.19648C11.1301 8.14867 9.69623 10.829 6.65292 11.7963C5.66365 12.1156 4.62785 12.1497 3.62612 11.896C3.55412 11.8775 4.97603 17.024 5.90897 20.4058L6.52393 22.6302C6.55607 22.7519 6.5681 22.8804 6.5593 23.0079C6.5505 23.1355 6.52106 23.2596 6.4727 23.373C6.42434 23.4863 6.35805 23.5866 6.27772 23.668C6.1974 23.7493 6.10466 23.8101 6.00497 23.8466L5.11552 24.1974C4.91061 24.281 4.68719 24.262 4.49354 24.1446C4.29989 24.0272 4.15156 23.8207 4.08059 23.5698L0.275331 9.46114C-0.768603 5.51634 1.26827 1.50693 4.12109 0.600567C7.16439 -0.364866 9.22376 0.600567 10.2347 4.19648H10.2362ZM8.93428 8.29634C9.57924 8.0896 9.77573 6.46331 9.37225 4.66166C8.96878 2.86186 8.11833 1.56969 7.47337 1.77644C6.82841 1.98319 6.63193 3.61132 7.0354 5.41112C7.43887 7.21092 8.28932 8.50309 8.93428 8.29634ZM13.761 4.19648C12.867 8.14867 14.3009 10.829 17.3442 11.7963C18.3335 12.1155 19.3693 12.1496 20.371 11.896C20.443 11.8775 19.0211 17.024 18.0882 20.4058L17.4732 22.6302C17.4411 22.7519 17.4291 22.8804 17.4379 23.0079C17.4467 23.1355 17.4761 23.2596 17.5245 23.373C17.5728 23.4863 17.6391 23.5866 17.7194 23.668C17.7998 23.7493 17.8925 23.8101 17.9922 23.8466L18.8816 24.1974C19.3151 24.3672 19.7816 24.0866 19.9166 23.5698L23.7203 9.46114C24.7643 5.51634 22.7274 1.50693 19.8746 0.600567C16.8313 -0.364866 14.7719 0.600567 13.761 4.19648V4.19648ZM15.0629 8.29634C14.4179 8.0896 14.2214 6.46331 14.6249 4.66166C15.0284 2.86186 15.8788 1.56969 16.5238 1.77644C17.1688 1.98319 17.3652 3.61132 16.9618 5.41112C16.5583 7.21092 15.7078 8.50309 15.0629 8.29634Z" fill="black"/>
</svg>
