<svg width="26" height="20" viewBox="0 0 26 20" fill="none" xmlns="http://www.w3.org/2000/svg">
<path fill-rule="evenodd" clip-rule="evenodd" d="M16.2491 17.0615C16.2491 17.277 16.1635 17.4837 16.0111 17.636C15.8588 17.7884 15.6521 17.874 15.4366 17.874H2.43736C2.22189 17.874 2.01524 17.7884 1.86287 17.636C1.71051 17.4837 1.62491 17.277 1.62491 17.0615V2.43736C1.62491 2.22189 1.71051 2.01524 1.86287 1.86287C2.01524 1.71051 2.22189 1.62491 2.43736 1.62491H15.4366C15.6521 1.62491 15.8588 1.71051 16.0111 1.86287C16.1635 2.01524 16.2491 2.22189 16.2491 2.43736V5.68718C16.2491 5.90266 16.3347 6.10931 16.4871 6.26167C16.6394 6.41404 16.8461 6.49964 17.0615 6.49964C17.277 6.49964 17.4837 6.41404 17.636 6.26167C17.7884 6.10931 17.874 5.90266 17.874 5.68718V2.43736C17.874 1.79093 17.6172 1.17098 17.1601 0.713887C16.703 0.256793 16.0831 0 15.4366 0H2.43736C1.79093 0 1.17098 0.256793 0.713887 0.713887C0.256793 1.17098 0 1.79093 0 2.43736L0 17.0615C0 17.708 0.256793 18.3279 0.713887 18.785C1.17098 19.2421 1.79093 19.4989 2.43736 19.4989H15.4366C16.0831 19.4989 16.703 19.2421 17.1601 18.785C17.6172 18.3279 17.874 17.708 17.874 17.0615V13.8117C17.874 13.5963 17.7884 13.3896 17.636 13.2372C17.4837 13.0849 17.277 12.9993 17.0615 12.9993C16.8461 12.9993 16.6394 13.0849 16.4871 13.2372C16.3347 13.3896 16.2491 13.5963 16.2491 13.8117V17.0615Z" fill="black"/>
<path fill-rule="evenodd" clip-rule="evenodd" d="M25.7613 10.3245C25.8369 10.249 25.897 10.1593 25.9379 10.0606C25.9789 9.96192 26 9.85611 26 9.74924C26 9.64238 25.9789 9.53656 25.9379 9.43786C25.897 9.33915 25.8369 9.2495 25.7613 9.17403L20.8865 4.2993C20.734 4.14674 20.5271 4.06104 20.3113 4.06104C20.0956 4.06104 19.8887 4.14674 19.7361 4.2993C19.5836 4.45186 19.4979 4.65877 19.4979 4.87452C19.4979 5.09026 19.5836 5.29718 19.7361 5.44973L23.2248 8.93679H8.93697C8.72149 8.93679 8.51484 9.02239 8.36247 9.17475C8.21011 9.32712 8.12451 9.53377 8.12451 9.74924C8.12451 9.96472 8.21011 10.1714 8.36247 10.3237C8.51484 10.4761 8.72149 10.5617 8.93697 10.5617H23.2248L19.7361 14.0488C19.5836 14.2013 19.4979 14.4082 19.4979 14.624C19.4979 14.8397 19.5836 15.0466 19.7361 15.1992C19.8887 15.3517 20.0956 15.4375 20.3113 15.4375C20.5271 15.4375 20.734 15.3517 20.8865 15.1992L25.7613 10.3245V10.3245Z" fill="black"/>
</svg>
