<svg width="24" height="24" viewBox="0 0 24 24" fill="none" xmlns="http://www.w3.org/2000/svg">
<path fill-rule="evenodd" clip-rule="evenodd" d="M21 1.5H3C2.60218 1.5 2.22064 1.65804 1.93934 1.93934C1.65804 2.22064 1.5 2.60218 1.5 3V21C1.5 21.3978 1.65804 21.7794 1.93934 22.0607C2.22064 22.342 2.60218 22.5 3 22.5H21C21.3978 22.5 21.7794 22.342 22.0607 22.0607C22.342 21.7794 22.5 21.3978 22.5 21V3C22.5 2.60218 22.342 2.22064 22.0607 1.93934C21.7794 1.65804 21.3978 1.5 21 1.5ZM3 0C2.20435 0 1.44129 0.316071 0.87868 0.87868C0.316071 1.44129 0 2.20435 0 3V21C0 21.7956 0.316071 22.5587 0.87868 23.1213C1.44129 23.6839 2.20435 24 3 24H21C21.7956 24 22.5587 23.6839 23.1213 23.1213C23.6839 22.5587 24 21.7956 24 21V3C24 2.20435 23.6839 1.44129 23.1213 0.87868C22.5587 0.316071 21.7956 0 21 0H3Z" fill="black"/>
<path fill-rule="evenodd" clip-rule="evenodd" d="M8.6925 18.6838C8.56068 18.6246 8.44879 18.5285 8.37029 18.4072C8.29178 18.2858 8.25001 18.1444 8.25 17.9998V5.99984C8.24996 5.85527 8.29171 5.71377 8.37021 5.59237C8.44872 5.47097 8.56064 5.37485 8.6925 5.31558C8.82436 5.2563 8.97054 5.2364 9.11345 5.25827C9.25636 5.28014 9.3899 5.34285 9.498 5.43884L16.248 11.4388C16.3273 11.5092 16.3908 11.5956 16.4343 11.6923C16.4777 11.789 16.5002 11.8938 16.5002 11.9998C16.5002 12.1059 16.4777 12.2107 16.4343 12.3074C16.3908 12.4041 16.3273 12.4905 16.248 12.5608L9.498 18.5608C9.38987 18.6568 9.25632 18.7195 9.11341 18.7413C8.9705 18.7631 8.82434 18.7432 8.6925 18.6838Z" fill="black"/>
</svg>
