<svg width="30" height="28" viewBox="0 0 30 28" fill="none" xmlns="http://www.w3.org/2000/svg">
<path fill-rule="evenodd" clip-rule="evenodd" d="M27.1875 2.30769H2.8125C2.56386 2.30769 2.3254 2.42926 2.14959 2.64565C1.97377 2.86203 1.875 3.15552 1.875 3.46154V24.2308C1.875 24.5368 1.97377 24.8303 2.14959 25.0467C2.3254 25.2631 2.56386 25.3846 2.8125 25.3846H27.1875C27.4361 25.3846 27.6746 25.2631 27.8504 25.0467C28.0262 24.8303 28.125 24.5368 28.125 24.2308V3.46154C28.125 3.15552 28.0262 2.86203 27.8504 2.64565C27.6746 2.42926 27.4361 2.30769 27.1875 2.30769ZM2.8125 0C2.06658 0 1.35121 0.364697 0.823762 1.01386C0.296316 1.66303 0 2.54348 0 3.46154V24.2308C0 25.1488 0.296316 26.0293 0.823762 26.6784C1.35121 27.3276 2.06658 27.6923 2.8125 27.6923H27.1875C27.9334 27.6923 28.6488 27.3276 29.1762 26.6784C29.7037 26.0293 30 25.1488 30 24.2308V3.46154C30 2.54348 29.7037 1.66303 29.1762 1.01386C28.6488 0.364697 27.9334 0 27.1875 0H2.8125Z" fill="black"/>
<path fill-rule="evenodd" clip-rule="evenodd" d="M5.625 8.07692C5.625 7.7709 5.72377 7.47742 5.89959 7.26103C6.0754 7.04464 6.31386 6.92308 6.5625 6.92308H23.4375C23.6861 6.92308 23.9246 7.04464 24.1004 7.26103C24.2762 7.47742 24.375 7.7709 24.375 8.07692C24.375 8.38294 24.2762 8.67643 24.1004 8.89282C23.9246 9.1092 23.6861 9.23077 23.4375 9.23077H6.5625C6.31386 9.23077 6.0754 9.1092 5.89959 8.89282C5.72377 8.67643 5.625 8.38294 5.625 8.07692ZM5.625 13.8462C5.625 13.5401 5.72377 13.2466 5.89959 13.0303C6.0754 12.8139 6.31386 12.6923 6.5625 12.6923H23.4375C23.6861 12.6923 23.9246 12.8139 24.1004 13.0303C24.2762 13.2466 24.375 13.5401 24.375 13.8462C24.375 14.1522 24.2762 14.4457 24.1004 14.662C23.9246 14.8784 23.6861 15 23.4375 15H6.5625C6.31386 15 6.0754 14.8784 5.89959 14.662C5.72377 14.4457 5.625 14.1522 5.625 13.8462ZM5.625 19.6154C5.625 19.3094 5.72377 19.0159 5.89959 18.7995C6.0754 18.5831 6.31386 18.4615 6.5625 18.4615H17.8125C18.0611 18.4615 18.2996 18.5831 18.4754 18.7995C18.6512 19.0159 18.75 19.3094 18.75 19.6154C18.75 19.9214 18.6512 20.2149 18.4754 20.4313C18.2996 20.6477 18.0611 20.7692 17.8125 20.7692H6.5625C6.31386 20.7692 6.0754 20.6477 5.89959 20.4313C5.72377 20.2149 5.625 19.9214 5.625 19.6154Z" fill="black"/>
</svg>
