<svg width="31" height="34" viewBox="0 0 31 34" fill="none" xmlns="http://www.w3.org/2000/svg">
<path fill-rule="evenodd" clip-rule="evenodd" d="M26.1999 2.73229C25.4361 2.73229 24.7035 3.05665 24.1634 3.63401C23.6233 4.21138 23.3199 4.99445 23.3199 5.81096C23.3199 6.62748 23.6233 7.41055 24.1634 7.98791C24.7035 8.56527 25.4361 8.88963 26.1999 8.88963C26.9638 8.88963 27.6963 8.56527 28.2364 7.98791C28.7765 7.41055 29.08 6.62748 29.08 5.81096C29.08 4.99445 28.7765 4.21138 28.2364 3.63401C27.6963 3.05665 26.9638 2.73229 26.1999 2.73229ZM21.3998 5.81096C21.3997 4.60706 21.7956 3.44144 22.5182 2.51804C23.2408 1.59463 24.2442 0.972243 25.3527 0.75976C26.4613 0.547278 27.6044 0.758234 28.5822 1.35572C29.5599 1.95321 30.31 2.89917 30.7012 4.02812C31.0923 5.15707 31.0997 6.3971 30.722 7.53127C30.3442 8.66543 29.6055 9.62151 28.6349 10.2322C27.6643 10.8429 26.5238 11.0694 25.4128 10.872C24.3018 10.6746 23.2912 10.0659 22.5576 9.15235L9.65885 15.556C9.95539 16.5605 9.95539 17.6383 9.65885 18.6429L22.5576 25.0465C23.333 24.0825 24.4156 23.4606 25.5955 23.3012C26.7754 23.1418 27.9687 23.4564 28.944 24.1838C29.9193 24.9113 30.6073 26 30.8746 27.2388C31.1418 28.4776 30.9693 29.7783 30.3906 30.8889C29.8118 31.9996 28.8679 32.8409 27.7419 33.25C26.6158 33.6591 25.3878 33.6068 24.2958 33.1032C23.2038 32.5996 22.3255 31.6806 21.8313 30.5242C21.3371 29.3679 21.262 28.0566 21.6206 26.8444L8.72188 20.4408C8.08334 21.2363 7.23222 21.8036 6.28301 22.0665C5.3338 22.3294 4.33204 22.2753 3.41249 21.9113C2.49293 21.5474 1.6997 20.8912 1.1395 20.0309C0.579293 19.1706 0.278992 18.1476 0.278992 17.0994C0.278992 16.0512 0.579293 15.0282 1.1395 14.1679C1.6997 13.3077 2.49293 12.6514 3.41249 12.2875C4.33204 11.9236 5.3338 11.8694 6.28301 12.1323C7.23222 12.3952 8.08334 12.9626 8.72188 13.758L21.6206 7.3544C21.4738 6.85498 21.3994 6.33447 21.3998 5.81096V5.81096ZM5.07958 14.0208C4.31574 14.0208 3.58319 14.3451 3.04308 14.9225C2.50297 15.4998 2.19953 16.2829 2.19953 17.0994C2.19953 17.9159 2.50297 18.699 3.04308 19.2764C3.58319 19.8537 4.31574 20.1781 5.07958 20.1781C5.84342 20.1781 6.57597 19.8537 7.11608 19.2764C7.65619 18.699 7.95963 17.9159 7.95963 17.0994C7.95963 16.2829 7.65619 15.4998 7.11608 14.9225C6.57597 14.3451 5.84342 14.0208 5.07958 14.0208ZM26.1999 25.3092C25.4361 25.3092 24.7035 25.6336 24.1634 26.2109C23.6233 26.7883 23.3199 27.5714 23.3199 28.3879C23.3199 29.2044 23.6233 29.9875 24.1634 30.5648C24.7035 31.1422 25.4361 31.4665 26.1999 31.4665C26.9638 31.4665 27.6963 31.1422 28.2364 30.5648C28.7765 29.9875 29.08 29.2044 29.08 28.3879C29.08 27.5714 28.7765 26.7883 28.2364 26.2109C27.6963 25.6336 26.9638 25.3092 26.1999 25.3092Z" fill="black"/>
</svg>
