<svg width="32" height="32" viewBox="0 0 32 32" fill="none" xmlns="http://www.w3.org/2000/svg">
<path fill-rule="evenodd" clip-rule="evenodd" d="M28 2H4C3.46957 2 2.96086 2.21071 2.58579 2.58579C2.21071 2.96086 2 3.46957 2 4V28C2 28.5304 2.21071 29.0391 2.58579 29.4142C2.96086 29.7893 3.46957 30 4 30H28C28.5304 30 29.0391 29.7893 29.4142 29.4142C29.7893 29.0391 30 28.5304 30 28V4C30 3.46957 29.7893 2.96086 29.4142 2.58579C29.0391 2.21071 28.5304 2 28 2ZM4 0C2.93913 0 1.92172 0.421427 1.17157 1.17157C0.421427 1.92172 0 2.93913 0 4V28C0 29.0609 0.421427 30.0783 1.17157 30.8284C1.92172 31.5786 2.93913 32 4 32H28C29.0609 32 30.0783 31.5786 30.8284 30.8284C31.5786 30.0783 32 29.0609 32 28V4C32 2.93913 31.5786 1.92172 30.8284 1.17157C30.0783 0.421427 29.0609 0 28 0H4Z" fill="black"/>
<path fill-rule="evenodd" clip-rule="evenodd" d="M11.59 24.9118C11.4142 24.8328 11.2651 24.7047 11.1604 24.5429C11.0557 24.3811 11 24.1925 11 23.9998V7.99979C10.9999 7.80703 11.0556 7.61836 11.1603 7.45649C11.265 7.29463 11.4142 7.16647 11.59 7.08743C11.7658 7.0084 11.9607 6.98187 12.1513 7.01103C12.3418 7.04019 12.5199 7.12379 12.664 7.25179L21.664 15.2518C21.7697 15.3456 21.8544 15.4608 21.9124 15.5897C21.9703 15.7187 22.0003 15.8584 22.0003 15.9998C22.0003 16.1412 21.9703 16.2809 21.9124 16.4098C21.8544 16.5388 21.7697 16.654 21.664 16.7478L12.664 24.7478C12.5198 24.8757 12.3418 24.9593 12.1512 24.9884C11.9607 25.0175 11.7658 24.9909 11.59 24.9118Z" fill="black"/>
</svg>
