<svg width="30" height="23" viewBox="0 0 30 23" fill="none" xmlns="http://www.w3.org/2000/svg">
<path d="M24.6235 2.39125C22.7683 1.57871 20.8157 1.00977 18.8143 0.698587C18.7962 0.695858 18.7777 0.698811 18.7613 0.707041C18.7449 0.715272 18.7315 0.728374 18.7228 0.744547C18.4805 1.19241 18.2138 1.77734 18.0284 2.23486C15.8719 1.946 13.6842 1.98419 11.5391 2.34813C11.3146 1.84599 11.062 1.35688 10.7824 0.883147C10.7731 0.867464 10.7592 0.854987 10.7425 0.847358C10.7259 0.83973 10.7074 0.837306 10.6894 0.840408C8.69967 1.2194 6.76767 1.85647 4.94281 2.73477C4.92717 2.74106 4.9142 2.75257 4.90611 2.76736C1.3228 8.3292 0.407002 13.7096 0.994379 18.9964C0.996587 19.0212 1.01299 19.0457 1.03278 19.0613C3.20298 20.611 5.62057 21.7809 8.18245 22.5211C8.20054 22.5265 8.21987 22.5259 8.23763 22.5196C8.25539 22.5132 8.27065 22.5013 8.28121 22.4857C8.81459 21.7311 9.28695 20.9367 9.69118 20.1027C9.69961 20.0855 9.70226 20.0661 9.69874 20.0473C9.69521 20.0285 9.6857 20.0113 9.67162 19.9983C9.6623 19.9898 9.6513 19.9834 9.63934 19.9794C8.86991 19.699 8.12352 19.359 7.40697 18.9625C7.38696 18.9516 7.3719 18.9335 7.36492 18.9118C7.35793 18.8901 7.35955 18.8666 7.36945 18.846C7.37525 18.8327 7.38418 18.821 7.39547 18.8119C7.54253 18.6975 7.68951 18.5778 7.82938 18.4583C7.84174 18.448 7.85667 18.4412 7.87257 18.4388C7.88847 18.4363 7.90474 18.4382 7.91964 18.4443C12.6028 20.4849 17.6321 20.3971 22.1844 18.1953C22.1996 18.1884 22.2164 18.1857 22.233 18.1876C22.2496 18.1895 22.2653 18.1959 22.2786 18.206C22.4226 18.3207 22.5736 18.4351 22.7246 18.5443C22.7368 18.5529 22.7467 18.5644 22.7534 18.5778C22.7601 18.5912 22.7634 18.606 22.7629 18.621C22.7625 18.6359 22.7583 18.6505 22.7509 18.6635C22.7434 18.6764 22.7328 18.6873 22.7201 18.6952C22.0195 19.1202 21.2845 19.4856 20.5228 19.7876C20.5106 19.7923 20.4997 19.7995 20.4906 19.8089C20.4816 19.8183 20.4747 19.8295 20.4705 19.8418C20.4666 19.8537 20.4652 19.8663 20.4663 19.8788C20.4674 19.8913 20.4711 19.9034 20.4771 19.9144C20.9173 20.7319 21.4188 21.511 21.9676 22.2468C21.9787 22.262 21.9944 22.2734 22.0123 22.2791C22.0303 22.2849 22.0496 22.2847 22.0675 22.2787C24.6063 21.4519 26.9855 20.1982 29.1027 18.5714C29.1134 18.5638 29.1221 18.5538 29.1284 18.5424C29.1346 18.5309 29.1382 18.5181 29.1389 18.5051C29.6245 12.3727 27.9475 7.08189 24.6596 2.42433C24.6562 2.4166 24.6513 2.40966 24.6451 2.40397C24.6389 2.39827 24.6315 2.39393 24.6235 2.39125ZM10.3066 15.6077C8.90688 15.6321 7.73314 14.3679 7.70564 12.7925C7.67811 11.2155 8.78573 9.91136 10.2067 9.88656C11.6383 9.86157 12.8016 11.1367 12.8077 12.7035C12.8352 14.2788 11.7275 15.5829 10.3066 15.6077ZM19.7371 15.4431C18.3392 15.4675 17.1637 14.2032 17.1362 12.6279C17.1087 11.0508 18.2163 9.74675 19.6373 9.72195C21.0689 9.69696 22.234 10.972 22.2382 12.5389C22.2657 14.1142 21.1688 15.4181 19.7371 15.4431Z" fill="white"/>
</svg>
