<svg width="33" height="32" viewBox="0 0 33 32" fill="none" xmlns="http://www.w3.org/2000/svg">
<path fill-rule="evenodd" clip-rule="evenodd" d="M4.125 2.27441H28.875C29.422 2.27441 29.9466 2.49171 30.3334 2.8785C30.7202 3.2653 30.9375 3.7899 30.9375 4.33691V20.8369C30.9375 21.3839 30.7202 21.9085 30.3334 22.2953C29.9466 22.6821 29.422 22.8994 28.875 22.8994H9.10387C8.00994 22.8996 6.9609 23.3344 6.1875 24.108L2.0625 28.233V4.33691C2.0625 3.7899 2.2798 3.2653 2.66659 2.8785C3.05338 2.49171 3.57799 2.27441 4.125 2.27441ZM1.20818 1.4201C1.98177 0.646511 3.03098 0.211914 4.125 0.211914H28.875C29.969 0.211914 31.0182 0.646511 31.7918 1.4201C32.5654 2.19368 33 3.24289 33 4.33691V20.8369C33 21.9309 32.5654 22.9801 31.7918 23.7537C31.0182 24.5273 29.969 24.9619 28.875 24.9619H9.10387C8.5569 24.962 8.03238 25.1794 7.64568 25.5662L1.76137 31.4505C1.61727 31.595 1.43354 31.6935 1.23345 31.7335C1.03335 31.7735 0.82589 31.7532 0.637311 31.6753C0.448732 31.5973 0.287516 31.4652 0.174069 31.2956C0.0606222 31.126 4.33431e-05 30.9265 0 30.7225V4.33691C0 3.24289 0.434597 2.19368 1.20818 1.4201ZM9.7084 14.0452C10.0952 13.6585 10.3125 13.1339 10.3125 12.5868C10.3125 12.0398 10.0952 11.5152 9.7084 11.1284C9.3216 10.7416 8.797 10.5243 8.24999 10.5243C7.70298 10.5243 7.17838 10.7416 6.79158 11.1284C6.40479 11.5152 6.18749 12.0398 6.18749 12.5868C6.18749 13.1339 6.40479 13.6585 6.79158 14.0452C7.17838 14.432 7.70298 14.6493 8.24999 14.6493C8.797 14.6493 9.3216 14.432 9.7084 14.0452ZM17.9584 14.0452C18.3452 13.6585 18.5625 13.1339 18.5625 12.5868C18.5625 12.0398 18.3452 11.5152 17.9584 11.1284C17.5716 10.7416 17.047 10.5243 16.5 10.5243C15.953 10.5243 15.4284 10.7416 15.0416 11.1284C14.6548 11.5152 14.4375 12.0398 14.4375 12.5868C14.4375 13.1339 14.6548 13.6585 15.0416 14.0452C15.4284 14.432 15.953 14.6493 16.5 14.6493C17.047 14.6493 17.5716 14.432 17.9584 14.0452ZM26.2084 14.0452C26.5952 13.6585 26.8125 13.1339 26.8125 12.5868C26.8125 12.0398 26.5952 11.5152 26.2084 11.1284C25.8216 10.7416 25.297 10.5243 24.75 10.5243C24.203 10.5243 23.6784 10.7416 23.2916 11.1284C22.9048 11.5152 22.6875 12.0398 22.6875 12.5868C22.6875 13.1339 22.9048 13.6585 23.2916 14.0452C23.6784 14.432 24.203 14.6493 24.75 14.6493C25.297 14.6493 25.8216 14.432 26.2084 14.0452Z" fill="black"/>
</svg>
