<svg width="32" height="32" viewBox="0 0 32 32" fill="none" xmlns="http://www.w3.org/2000/svg">
<path d="M0 2.60874C0 1.35894 1.03854 0.346069 2.31993 0.346069H29.2706C30.552 0.346069 31.5906 1.35894 31.5906 2.60874V29.674C31.5906 30.9238 30.552 31.9366 29.2706 31.9366H2.31993C1.03854 31.9366 0 30.9238 0 29.674V2.60874ZM9.75951 26.7913V12.5262H5.01895V26.7913H9.75951ZM7.39022 10.5775C9.0428 10.5775 10.0715 9.48364 10.0715 8.1134C10.0418 6.71354 9.04477 5.64933 7.42181 5.64933C5.79884 5.64933 4.73858 6.71552 4.73858 8.1134C4.73858 9.48364 5.76725 10.5775 7.35862 10.5775H7.39022ZM17.0806 26.7913V18.8246C17.0806 18.3981 17.1122 17.9716 17.2386 17.6676C17.5801 16.8166 18.36 15.934 19.671 15.934C21.3868 15.934 22.0719 17.2411 22.0719 19.1602V26.7913H26.8125V18.6094C26.8125 14.2262 24.4748 12.1886 21.3552 12.1886C18.8398 12.1886 17.7124 13.5707 17.0806 14.544V14.5934H17.049C17.0595 14.5769 17.07 14.5605 17.0806 14.544V12.5262H12.342C12.4013 13.8649 12.342 26.7913 12.342 26.7913H17.0806Z" fill="black"/>
</svg>
