<svg width="25" height="25" viewBox="0 0 25 25" fill="none" xmlns="http://www.w3.org/2000/svg">
<path d="M0.338379 1.96314C0.338379 1.01364 1.12738 0.244141 2.10088 0.244141H22.5759C23.5494 0.244141 24.3384 1.01364 24.3384 1.96314V22.5251C24.3384 23.4746 23.5494 24.2441 22.5759 24.2441H2.10088C1.12738 24.2441 0.338379 23.4746 0.338379 22.5251V1.96314ZM7.75288 20.3351V9.49764H4.15138V20.3351H7.75288ZM5.95288 8.01714C7.20838 8.01714 7.98988 7.18614 7.98988 6.14514C7.96738 5.08164 7.20988 4.27314 5.97688 4.27314C4.74388 4.27314 3.93838 5.08314 3.93838 6.14514C3.93838 7.18614 4.71988 8.01714 5.92888 8.01714H5.95288ZM13.3149 20.3351V14.2826C13.3149 13.9586 13.3389 13.6346 13.4349 13.4036C13.6944 12.7571 14.2869 12.0866 15.2829 12.0866C16.5864 12.0866 17.1069 13.0796 17.1069 14.5376V20.3351H20.7084V14.1191C20.7084 10.7891 18.9324 9.24114 16.5624 9.24114C14.6514 9.24114 13.7949 10.2911 13.3149 11.0306V11.0681H13.2909C13.2988 11.0556 13.3068 11.0431 13.3149 11.0306V9.49764H9.71488C9.75988 10.5146 9.71488 20.3351 9.71488 20.3351H13.3149Z" fill="#280C64"/>
</svg>
