<svg width="25" height="24" viewBox="0 0 25 24" fill="none" xmlns="http://www.w3.org/2000/svg">
<path fill-rule="evenodd" clip-rule="evenodd" d="M14.3124 6.61012C14.3732 6.54917 14.4454 6.50081 14.5249 6.46782C14.6044 6.43483 14.6897 6.41785 14.7758 6.41785C14.8618 6.41785 14.9471 6.43483 15.0266 6.46782C15.1061 6.50081 15.1783 6.54917 15.2391 6.61012L23.0925 14.4635C23.2154 14.5864 23.2844 14.7531 23.2844 14.9269C23.2844 15.1006 23.2154 15.2673 23.0925 15.3902C22.9696 15.5131 22.8029 15.5821 22.6292 15.5821C22.4554 15.5821 22.2887 15.5131 22.1658 15.3902L14.7758 7.99886L7.38572 15.3902C7.26283 15.5131 7.09616 15.5821 6.92237 15.5821C6.74858 15.5821 6.5819 15.5131 6.45902 15.3902C6.33613 15.2673 6.26709 15.1006 6.26709 14.9269C6.26709 14.7531 6.33613 14.5864 6.45902 14.4635L14.3124 6.61012Z" fill="#280C64"/>
</svg>
