<svg width="36" height="25" viewBox="0 0 36 25" fill="none" xmlns="http://www.w3.org/2000/svg">
<path d="M18.0687 0.928955H18.2588C20.0141 0.935361 28.9081 0.999424 31.3062 1.64432C32.0312 1.84114 32.6918 2.22478 33.222 2.75689C33.7523 3.28901 34.1336 3.95097 34.3278 4.67662C34.5435 5.48808 34.6951 6.5622 34.7976 7.67048L34.819 7.89256L34.866 8.44777L34.883 8.66986C35.0218 10.6216 35.0389 12.4496 35.0411 12.8489V13.009C35.0389 13.4233 35.0197 15.3751 34.866 17.408L34.8489 17.6322L34.8297 17.8543C34.7229 19.0758 34.5649 20.2887 34.3278 21.1813C34.1342 21.9072 33.7531 22.5695 33.2227 23.1017C32.6924 23.6339 32.0315 24.0174 31.3062 24.2136C28.8291 24.8798 19.4141 24.9268 18.1093 24.929H17.8061C17.1462 24.929 14.4172 24.9161 11.5557 24.8179L11.1927 24.8051L11.0069 24.7966L10.6417 24.7816L10.2766 24.7667C7.90627 24.662 5.64913 24.4933 4.60918 24.2115C3.88418 24.0154 3.22343 23.6323 2.69312 23.1005C2.16281 22.5687 1.78156 21.9068 1.58756 21.1813C1.35053 20.2908 1.19251 19.0758 1.08574 17.8543L1.06865 17.6301L1.05157 17.408C0.946181 15.961 0.887782 14.511 0.876465 13.0603L0.876465 12.7976C0.880736 12.3385 0.897819 10.7519 1.01313 9.00085L1.02808 8.7809L1.03449 8.66986L1.05157 8.44777L1.09855 7.89256L1.1199 7.67048C1.2224 6.5622 1.37402 5.48594 1.5897 4.67662C1.78336 3.95068 2.16447 3.2884 2.6948 2.7562C3.22514 2.22399 3.88606 1.84055 4.61132 1.64432C5.65127 1.36672 7.90841 1.19588 10.2787 1.08911L10.6417 1.07416L11.009 1.06135L11.1927 1.05495L11.5578 1.04C13.5901 0.974599 15.6233 0.938293 17.6566 0.931091H18.0687V0.928955ZM14.5432 7.78366V18.0721L23.4201 12.93L14.5432 7.78366Z" fill="#280C64"/>
</svg>
