<svg width="46" height="33" viewBox="0 0 46 33" fill="none" xmlns="http://www.w3.org/2000/svg">
<path d="M22.6653 0.738281H22.9154C25.2259 0.746714 36.9329 0.831038 40.0894 1.6799C41.0436 1.93897 41.9132 2.44394 42.6111 3.14435C43.3091 3.84476 43.811 4.71608 44.0667 5.67123C44.3506 6.73933 44.5501 8.15317 44.685 9.61197L44.7132 9.90429L44.775 10.6351L44.7975 10.9274C44.9802 13.4965 45.0027 15.9025 45.0055 16.4282V16.639C45.0027 17.1843 44.9774 19.7533 44.775 22.4292L44.7525 22.7243L44.7272 23.0167C44.5867 24.6244 44.3787 26.221 44.0667 27.3959C43.8117 28.3514 43.3101 29.2232 42.612 29.9237C41.914 30.6242 41.044 31.1289 40.0894 31.3872C36.8289 32.2642 24.4361 32.326 22.7187 32.3288H22.3195C21.451 32.3288 17.8588 32.312 14.0923 32.1827L13.6145 32.1658L13.3699 32.1546L12.8893 32.1349L12.4087 32.1152C9.28867 31.9775 6.31766 31.7554 4.9488 31.3844C3.9945 31.1264 3.12477 30.6221 2.42674 29.9221C1.7287 29.2221 1.22687 28.3509 0.971518 27.3959C0.65952 26.2238 0.451521 24.6244 0.310981 23.0167L0.288494 22.7215L0.266008 22.4292C0.127288 20.5246 0.0504193 18.616 0.0355225 16.7064L0.0355225 16.3607C0.0411441 15.7564 0.0636304 13.668 0.215414 11.3631L0.235089 11.0736L0.243521 10.9274L0.266008 10.6351L0.327845 9.90429L0.355953 9.61197C0.490872 8.15317 0.690438 6.73652 0.974329 5.67123C1.22925 4.71569 1.73089 3.84396 2.42895 3.14343C3.12702 2.4429 3.99698 1.93819 4.95161 1.6799C6.32047 1.3145 9.29148 1.08963 12.4115 0.949091L12.8893 0.929415L13.3728 0.912551L13.6145 0.904119L14.0951 0.884443C16.7702 0.798361 19.4463 0.750572 22.1228 0.741092H22.6653V0.738281ZM18.0246 9.76094V23.3034L29.7091 16.535L18.0246 9.76094Z" fill="black"/>
</svg>
